<?xml version="1.0" encoding="UTF-8" standalone="no"?>
<!-- Created with Inkscape (http://www.inkscape.org/) -->

<svg
   width="210mm"
   height="297mm"
   viewBox="0 0 210 297"
   version="1.1"
   id="svg437"
   inkscape:version="1.2.2 (b0a8486, 2022-12-01)"
   sodipodi:docname="noun-biology-2298355(clean).svg"
   inkscape:export-filename="bitmap.png"
   inkscape:export-xdpi="96"
   inkscape:export-ydpi="96"
   xmlns:inkscape="http://www.inkscape.org/namespaces/inkscape"
   xmlns:sodipodi="http://sodipodi.sourceforge.net/DTD/sodipodi-0.dtd"
   xmlns="http://www.w3.org/2000/svg"
   xmlns:svg="http://www.w3.org/2000/svg">
  <sodipodi:namedview
     id="namedview439"
     pagecolor="#ffffff"
     bordercolor="#000000"
     borderopacity="0.25"
     inkscape:showpageshadow="2"
     inkscape:pageopacity="0.0"
     inkscape:pagecheckerboard="0"
     inkscape:deskcolor="#d1d1d1"
     inkscape:document-units="mm"
     showgrid="false"
     inkscape:zoom="0.4204826"
     inkscape:cx="444.72708"
     inkscape:cy="594.55492"
     inkscape:window-width="1275"
     inkscape:window-height="726"
     inkscape:window-x="76"
     inkscape:window-y="25"
     inkscape:window-maximized="0"
     inkscape:current-layer="layer1" />
  <defs
     id="defs434" />
  <g
     inkscape:label="Layer 1"
     inkscape:groupmode="layer"
     id="layer1">
    <path
       d="M 179.92406,125.85314 H 24.941728 v 14.79479 H 179.92406 Z m -6.88058,17.51365 c -47.07349,0 -94.14698,0 -141.220468,0 v 8.12483 H 173.04701 Z M 70.423955,154.22176 v 50.65536 H 134.44606 V 172.46849 H 78.96471 c -0.75379,0 -1.36564,-0.62149 -1.36564,-1.36564 0,-0.75516 0.61048,-1.36426 1.36564,-1.36426 h 55.48488 v -15.51658 z m -2.7299,50.65536 V 154.22176 H 42.156119 v 50.65536 z m 69.483105,-50.65536 v 50.65536 H 162.7151 V 154.22176 Z M 40.47725,101.3686 v 11.07652 c 0,1.14377 0.472652,2.18556 1.220929,2.94072 0.75378,0.75515 1.798355,1.22092 2.94072,1.22092 1.10931,0 2.131836,-0.44372 2.880113,-1.15478 l 0.06064,-0.0661 c 0.753781,-0.75516 1.219553,-1.79836 1.219553,-2.94072 v -11.07652 z m 0,-2.729899 h 8.323439 V 93.222855 H 40.47725 Z m 17.208852,2.729899 v 11.07652 c 0,1.14377 0.472652,2.18556 1.226468,2.94072 0.75378,0.75515 1.798355,1.22092 2.94072,1.22092 1.110685,0 2.126297,-0.44372 2.874574,-1.15478 l 0.06615,-0.0661 c 0.75378,-0.75516 1.220929,-1.79836 1.220929,-2.94072 v -11.07652 z m 0,-2.729899 h 8.330142 V 93.222855 H 57.686102 Z M 74.90201,101.3686 v 11.05464 c 0,1.13274 0.465773,2.17594 1.21405,2.92972 0.75378,0.75515 1.79836,1.22093 2.93522,1.22093 1.1479,0 2.18556,-0.46578 2.93659,-1.22093 0.75378,-0.75516 1.21955,-1.79836 1.21955,-2.92972 V 101.3686 Z m 11.03665,0 v 11.05464 c 0,1.88655 -0.7772,3.60786 -2.02021,4.86163 -1.24298,1.24298 -2.96969,2.02022 -4.86163,2.02022 -1.89894,0 -3.618799,-0.7772 -4.86728,-2.02022 -1.248515,-1.25402 -2.020217,-2.97518 -2.020217,-4.86163 V 101.3686 h -3.423038 v 11.07652 c 0,1.89755 -0.777204,3.62973 -2.020217,4.87256 l -0.100598,0.0882 c -1.242977,1.19888 -2.928338,1.93202 -4.772025,1.93202 -1.898932,0 -3.624086,-0.77721 -4.872566,-2.02022 -1.242978,-1.24298 -2.020218,-2.97381 -2.020218,-4.87256 V 101.3686 h -3.428576 v 11.07652 c 0,1.89755 -0.777205,3.62973 -2.020217,4.87256 l -0.100599,0.0882 c -1.242977,1.19888 -2.929713,1.93202 -4.772024,1.93202 -1.893429,0 -3.618795,-0.77721 -4.861631,-2.02022 -1.254019,-1.24298 -2.031224,-2.97381 -2.031224,-4.87256 V 101.3686 h -1.965078 v 21.75369 H 87.60789 V 101.3686 Z M 74.90201,98.638701 h 8.30686 v -5.415846 h -8.30686 z m 45.83642,0 h 27.85991 c 0.60357,-1.60955 0.93705,-3.362397 0.93705,-5.193949 0,-3.340382 -1.1038,-6.425847 -2.95726,-8.900583 -1.88101,-2.509414 -4.5339,-4.4069 -7.60801,-5.32765 -0.62837,-0.133671 -1.09968,-0.676627 -1.09968,-1.342213 V 54.921879 h -6.40362 v 22.952427 c -0.006,0.588433 -0.38862,1.132734 -0.98806,1.310499 -3.11848,0.909496 -5.81519,2.81947 -7.71842,5.371747 -1.85346,2.463941 -2.95177,5.549194 -2.95177,8.889647 -0.001,1.830035 0.32522,3.584222 0.93017,5.192532 z m 12.56912,9.611779 v -6.88199 h -11.2201 c 0.59944,0.94397 1.28707,1.80936 2.07532,2.58657 2.38538,2.38675 5.58235,3.97298 9.1447,4.29542 z m 0,14.8717 v -12.13097 c -4.3173,-0.33348 -8.19503,-2.22003 -11.07546,-5.10575 -0.50987,-0.50987 -0.98806,-1.04316 -1.42628,-1.60955 V 123.122 l 12.50174,0.001 z m 2.72577,-12.12956 v 12.13097 h 12.50279 V 104.2775 c -0.44372,0.56638 -0.92191,1.09968 -1.43315,1.60955 -2.87458,2.88561 -6.75782,4.77202 -11.06982,5.10575 z m 23.03533,7.02522 c -0.75653,0 -1.36564,-0.62149 -1.36564,-1.36426 0,-0.75516 0.60911,-1.36564 1.36564,-1.36564 h 31.50341 c 0.74827,0 1.35875,0.61048 1.35875,1.36564 v 19.61091 c 0,0.74278 -0.61048,1.36427 -1.35875,1.36427 -0.74828,0 -1.36427,-0.62149 -1.36427,-1.36427 V 118.01777 Z M 24.547429,215.54325 c -0.748277,0 -1.365638,-0.61048 -1.365638,-1.36563 0,-0.74415 0.615985,-1.36564 1.365638,-1.36564 H 150.47851 c 0.75378,0 1.36564,0.62149 1.36564,1.36564 0,0.75515 -0.61186,1.36563 -1.36564,1.36563 z M 98.28504,223.201 c -0.74965,0 -1.36564,-0.6091 -1.36564,-1.35459 0,-0.75378 0.61461,-1.36564 1.36564,-1.36564 h 78.26022 c 0.75653,0 1.36564,0.61048 1.36564,1.36564 0,0.74414 -0.61049,1.35459 -1.36564,1.35459 z m 86.27533,0 c -0.75378,0 -1.36426,-0.6091 -1.36426,-1.35459 0,-0.75378 0.61048,-1.36564 1.36426,-1.36564 h 9.78958 c 0.74828,0 1.36564,0.61048 1.36564,1.36564 0,0.74414 -0.61598,1.35459 -1.36564,1.35459 z M 19.583846,222.97914 c -0.748277,0 -1.358759,-0.62149 -1.358759,-1.36427 0,-0.75378 0.610482,-1.36563 1.358759,-1.36563 h 41.292637 c 0.753781,0 1.365639,0.61048 1.365639,1.36563 0,0.74415 -0.610482,1.36427 -1.365639,1.36427 z M 136.03226,101.36958 v 6.88199 c 3.55671,-0.32246 6.75393,-1.9086 9.1447,-4.29542 0.78275,-0.77721 1.47038,-1.6426 2.06982,-2.58657 z"
       fill-rule="evenodd"
       id="path64"
       sodipodi:nodetypes="ccccccccccccccsssccccccccccccccscsccsccccccccscsccsccccccccscscscccscscsccsccscsccsccscscccccccccccccsccsccccccccccccsccccccccccccccccsssssssccssssssssssssssssssssssssssssccccc"
       style="stroke-width:0.352778" />
  </g>
</svg>
