<?xml version="1.0" encoding="UTF-8" standalone="no"?>
<!-- Created with Inkscape (http://www.inkscape.org/) -->

<svg
   width="210mm"
   height="297mm"
   viewBox="0 0 210 297"
   version="1.1"
   id="svg412"
   inkscape:version="1.2.2 (b0a8486, 2022-12-01)"
   sodipodi:docname="noun-coding-2298322_clean.svg"
   inkscape:export-filename="bitmap.png"
   inkscape:export-xdpi="96"
   inkscape:export-ydpi="96"
   xmlns:inkscape="http://www.inkscape.org/namespaces/inkscape"
   xmlns:sodipodi="http://sodipodi.sourceforge.net/DTD/sodipodi-0.dtd"
   xmlns="http://www.w3.org/2000/svg"
   xmlns:svg="http://www.w3.org/2000/svg">
  <sodipodi:namedview
     id="namedview414"
     pagecolor="#ffffff"
     bordercolor="#000000"
     borderopacity="0.25"
     inkscape:showpageshadow="2"
     inkscape:pageopacity="0.0"
     inkscape:pagecheckerboard="0"
     inkscape:deskcolor="#d1d1d1"
     inkscape:document-units="mm"
     showgrid="false"
     inkscape:zoom="0.2102413"
     inkscape:cx="439.97064"
     inkscape:cy="613.58068"
     inkscape:window-width="1234"
     inkscape:window-height="768"
     inkscape:window-x="125"
     inkscape:window-y="25"
     inkscape:window-maximized="0"
     inkscape:current-layer="layer1" />
  <defs
     id="defs409" />
  <g
     inkscape:label="Layer 1"
     inkscape:groupmode="layer"
     id="layer1">
    <path
       d="m 44.68415,191.13266 v -68.16725 c 0,-0.66421 0.55534,-1.22093 1.22092,-1.22093 h 19.59434 v -8.60601 H 40.95243 c -1.2802,0 -2.44189,0.52641 -3.29488,1.36976 -0.84335,0.84336 -1.36976,2.01468 -1.36976,3.28525 v 73.33897 l 8.39646,0.001 z m 95.11947,-69.39139 h 22.14386 c 0.66421,0 1.22093,0.55535 1.22093,1.22093 v 46.20331 h 8.39646 v -51.37503 c 0,-1.27057 -0.52642,-2.44189 -1.37943,-3.28524 -0.83372,-0.84473 -2.00505,-1.36977 -3.28525,-1.36977 h -27.09756 z m 33.01223,71.83261 h -10.86978 -135.636 v 7.1755 c 0,1.73634 1.19062,3.37482 2.85806,4.6549 2.01468,1.5379 4.68524,2.51079 6.89857,2.51079 h 135.71361 c 2.20349,0 4.87398,-0.97289 6.89857,-2.52042 1.66744,-1.27056 2.85806,-2.91867 2.85806,-4.64537 v -7.1755 z m -67.02777,5.31107 c -0.47682,-0.46715 -1.13136,-0.76344 -1.85621,-0.76344 -0.72486,0 -1.39044,0.29765 -1.86588,0.76344 -0.46715,0.47682 -0.76482,1.14103 -0.76482,1.86588 0,0.72485 0.29765,1.37943 0.76482,1.85621 0.47544,0.47681 1.14102,0.76345 1.86588,0.76345 0.69455,0 1.32979,-0.26734 1.80661,-0.71519 l 0.0496,-0.0496 c 0.47681,-0.47681 0.76482,-1.13136 0.76482,-1.85621 0,-0.72348 -0.28801,-1.38769 -0.76482,-1.8645 z m -1.85484,-3.2053 c 1.38907,0 2.66101,0.56501 3.57329,1.4883 0.92329,0.92329 1.48967,2.19385 1.48967,3.58281 0,1.4001 -0.565,2.67063 -1.47863,3.58281 l -0.0786,0.0689 c -0.91362,0.87369 -2.14422,1.40974 -3.50435,1.40974 -1.40011,0 -2.661,-0.56501 -3.58281,-1.47864 -0.92329,-0.91362 -1.48968,-2.18419 -1.48968,-3.58281 0,-1.39044 0.56501,-2.661 1.48968,-3.58281 0.92054,-0.92467 2.18143,-1.4883 3.5814,-1.4883 z m 67.63103,-12.49751 h -8.39646 v 7.94985 h 8.39646 z m 14.93802,-11.57287 v 9.13095 h 2.34266 v -9.13095 z m 4.78332,0 v 9.13095 h 6.94795 v -9.13095 z m -63.12606,0 v 3.34451 h 50.77883 c 0.67526,0 1.22093,0.54571 1.22093,1.22093 0,0.67525 -0.54571,1.22092 -1.22093,1.22092 h -50.77883 v 3.34589 h 55.90117 v -9.13095 l -11.2448,-0.001 z m -2.43085,9.13095 v -9.13095 h -5.15126 l -9.61743,4.5653 9.61743,4.56529 z M 79.30667,79.221359 c -0.67525,0 -1.22092,-0.54572 -1.22092,-1.22093 0,-0.66559 0.54571,-1.2113 1.22092,-1.2113 H 97.8081 c 0.67526,0 1.22093,0.54571 1.22093,1.2113 0,0.67525 -0.54571,1.22093 -1.22093,1.22093 z m 0,4.91278 c -0.67525,0 -1.22092,-0.54571 -1.22092,-1.22093 0,-0.66421 0.54571,-1.22093 1.22092,-1.22093 H 97.8081 c 0.67526,0 1.22093,0.55535 1.22093,1.22093 0,0.67525 -0.54571,1.22093 -1.22093,1.22093 z m 0,18.173701 c -0.67525,0 -1.22092,-0.54571 -1.22092,-1.2113 0,-0.67525 0.54571,-1.220931 1.22092,-1.220931 h 49.6182 c 0.66558,0 1.22093,0.545711 1.22093,1.220931 0,0.66559 -0.55535,1.2113 -1.22093,1.2113 z m 0,5.39926 c -0.67525,0 -1.22092,-0.55534 -1.22092,-1.22093 0,-0.67525 0.54571,-1.22092 1.22092,-1.22092 h 49.6182 c 0.66558,0 1.22093,0.54571 1.22093,1.22092 0,0.66421 -0.55535,1.22093 -1.22093,1.22093 z m 0,5.38939 c -0.67525,0 -1.22092,-0.54571 -1.22092,-1.22093 0,-0.67525 0.54571,-1.22093 1.22092,-1.22093 h 49.6182 c 0.66558,0 1.22093,0.54571 1.22093,1.22093 0,0.67525 -0.55535,1.22093 -1.22093,1.22093 z m 0,5.3908 c -0.67525,0 -1.22092,-0.54572 -1.22092,-1.22093 0,-0.67525 0.54571,-1.22093 1.22092,-1.22093 h 49.6182 c 0.66558,0 1.22093,0.54571 1.22093,1.22093 0,0.67525 -0.55535,1.22093 -1.22093,1.22093 z m 0,5.38938 c -0.67525,0 -1.22092,-0.54571 -1.22092,-1.22093 0,-0.66558 0.54571,-1.22093 1.22092,-1.22093 h 49.6182 c 0.66558,0 1.22093,0.55535 1.22093,1.22093 0,0.67526 -0.55535,1.22093 -1.22093,1.22093 z m 0,5.38939 c -0.67525,0 -1.22092,-0.54571 -1.22092,-1.22093 0,-0.66559 0.54571,-1.22093 1.22092,-1.22093 h 49.6182 c 0.66558,0 1.22093,0.55534 1.22093,1.22093 0,0.67388 -0.55535,1.22093 -1.22093,1.22093 z m 0,5.40067 c -0.67525,0 -1.22092,-0.55534 -1.22092,-1.22093 0,-0.67387 0.54571,-1.22092 1.22092,-1.22092 h 49.6182 c 0.66558,0 1.22093,0.54571 1.22093,1.22092 0,0.66559 -0.55535,1.22093 -1.22093,1.22093 z m 40.95398,48.514 -0.01,-0.01 v 0.01 z m 19.54459,-49.57939 0.008,23.08755 -0.008,0.0303 v 0.12816 h -0.011 v 0.0606 l -0.008,0.0303 -0.011,0.0303 v 0.0303 l -0.0193,0.0606 -0.01,0.0207 -0.011,0.0289 -0.01,0.0303 -0.01,0.0289 -0.01,0.0207 -0.0207,0.0289 -0.01,0.0303 -0.01,0.0193 -0.0207,0.0303 -0.01,0.0303 -0.0207,0.0193 -0.01,0.0303 h -0.01 l -0.01,0.0193 -0.0193,0.0207 -0.0193,0.0303 -0.0207,0.0193 -0.01,0.0193 h -0.01 l -0.01,0.0303 -0.0193,0.0207 h -0.01 l -0.01,0.0193 h -0.011 l -0.0992,0.0992 h -0.008 l -0.0207,0.0193 -0.0207,0.01 -0.0303,0.0207 -0.0193,0.01 -0.0303,0.0207 -0.0193,0.0193 -0.0303,0.01 -0.0207,0.01 h -0.01 l -0.0207,0.0207 -0.0606,0.0193 -0.0193,0.01 -0.0606,0.0193 -0.0289,0.01 -0.0303,0.01 -0.0289,0.01 -0.0303,0.01 h -0.0289 l -0.0303,0.01 h -0.0303 l -0.0303,0.01 h -0.0303 l -0.0303,0.01 h -0.0303 l -0.0262,-0.003 H 72.16519 c -0.67525,0 -1.22092,-0.54571 -1.22092,-1.22093 v -4.21816 h -4.22769 l -0.0303,-0.01 h -0.12126 v -0.01 h -0.0606 l -0.0606,-0.0193 h -0.0303 v -0.01 h -0.0303 l -0.15158,-0.0482 -0.0193,-0.01 -0.0303,-0.0207 -0.0303,-0.01 -0.0193,-0.01 -0.0303,-0.0193 -0.0207,-0.011 -0.0303,-0.0193 -0.0193,-0.01 v -0.01 l -0.0303,-0.01 -0.0193,-0.0193 -0.0303,-0.0207 -0.0207,-0.0193 -0.0193,-0.011 v -0.008 l -0.0193,-0.011 v -0.01 l -0.0303,-0.01 v -0.01 l -0.0207,-0.01 v -0.01 l -0.0386,-0.0413 -0.0207,-0.0193 -0.0193,-0.0207 -0.01,-0.0207 v -0.01 l -0.0193,-0.0207 -0.0193,-0.0193 -0.0207,-0.0303 -0.01,-0.0207 -0.0207,-0.0303 -0.01,-0.0207 -0.0193,-0.0303 -0.01,-0.0193 v -0.01 l -0.01,-0.0193 -0.0193,-0.0303 -0.01,-0.0289 -0.01,-0.0193 v -0.011 l -0.01,-0.0193 -0.0386,-0.12127 v -0.0303 l -0.0193,-0.0606 v -0.0303 l -0.01,-0.0303 v -0.0592 l -0.01,-0.0289 v -27.12685 l -18.36632,0.006 v 66.95016 h 113.59797 v -7.94985 H 120.244 v -0.01 h -0.0978 v -0.01 h -0.0593 l -0.01,-0.011 -0.0496,-0.01 c -0.0992,-0.0193 -0.19844,-0.0496 -0.28801,-0.0992 l -0.01,-0.01 h -0.01 l -12.11862,-5.75592 -0.0303,-0.0207 -0.0193,-0.01 h -0.01 l -0.01,-0.01 -0.0193,-0.01 h -0.01 l -0.0193,-0.01 -0.0193,-0.0207 -0.0207,-0.01 -0.0193,-0.0193 h -0.01 l -0.0303,-0.0303 -0.0303,-0.01 -0.01,-0.0207 h -0.01 l -0.0193,-0.0207 -0.0207,-0.01 -0.0193,-0.0207 v -0.01 l -0.0289,-0.0289 -0.0193,-0.0207 -0.0193,-0.0193 -0.0207,-0.0193 -0.01,-0.0207 -0.0207,-0.0193 v -0.01 l -0.0496,-0.0496 -0.01,-0.0289 -0.0193,-0.0207 -0.01,-0.0207 -0.01,-0.0303 -0.0207,-0.0193 -0.01,-0.0303 -0.01,-0.0193 -0.01,-0.0303 -0.01,-0.0207 -0.01,-0.01 v -0.0207 l -0.01,-0.01 -0.01,-0.0303 -0.0207,-0.0496 -0.01,-0.0289 v -0.0303 l -0.01,-0.0289 -0.01,-0.0303 v -0.0289 l -0.01,-0.0303 v -0.0606 l -0.01,-0.0303 v -0.1571 l 0.01,-0.0193 v -0.0303 l -0.007,-0.011 v -0.0303 l 0.01,-0.0193 v -0.04 l 0.01,-0.0193 v -0.0303 l 0.01,-0.01 v -0.0303 l 0.01,-0.01 v -0.0207 l 0.01,-0.01 0.01,-0.0303 v -0.0207 l 0.01,-0.01 v -0.0207 l 0.01,-0.01 0.01,-0.0207 0.0193,-0.0606 0.0193,-0.0386 0.01,-0.011 0.01,-0.0193 v -0.01 l 0.0193,-0.0193 v -0.0207 l 0.0289,-0.0289 v -0.01 l 0.01,-0.011 0.01,-0.01 0.01,-0.0207 0.0193,-0.0193 0.0207,-0.0303 0.01,-0.0193 h 0.01 l 0.01,-0.0207 h 0.01 l 0.01,-0.0193 h 0.01 l 0.01,-0.0193 h 0.01 l 0.01,-0.01 0.01,-0.0193 0.0193,-0.0207 0.0207,-0.0207 0.0193,-0.01 0.0289,-0.0289 0.0193,-0.01 0.0303,-0.0207 0.0207,-0.0193 h 0.01 l 0.0207,-0.0193 0.0193,-0.011 h 0.01 l 0.0193,-0.0193 0.0193,-0.01 h 0.01 l 0.0303,-0.0193 0.0303,-0.011 12.09922,-5.74781 0.0207,-0.01 0.01,-0.01 0.0193,-0.01 0.0207,-0.01 h 0.0193 l 0.0193,-0.01 0.01,-0.011 0.0193,-0.008 h 0.0207 v -0.011 h 0.0193 l 0.01,-0.01 h 0.01 l 0.01,-0.01 h 0.0193 l 0.01,-0.01 h 0.0289 l 0.0193,-0.011 h 0.0193 l 0.01,-0.01 h 0.0289 l 0.01,-0.01 h 0.0496 v -0.01 h 0.062 l 0.0193,-0.01 h 40.53769 l 0.008,-44.97916 h -20.9229 v 9.41881 z M 118.61247,86.205649 h 16.94286 l -16.94286,-16.18791 z m 18.76072,2.44189 h -19.98028 c -0.67525,0 -1.22092,-0.54571 -1.22092,-1.22093 v -19.04717 c -14.26281,-0.01 -28.51574,0 -42.78136,0 V 155.46616 H 137.3704 Z M 28.82347,217.83123 c -0.67525,0 -1.22093,-0.54571 -1.22093,-1.22092 0,-0.66559 0.54571,-1.2113 1.22093,-1.2113 h 101.37069 c 0.66421,0 1.22093,0.54571 1.22093,1.2113 0,0.67387 -0.55534,1.22092 -1.22093,1.22092 z m 59.35486,6.17362 c -0.67525,0 -1.22093,-0.54572 -1.22093,-1.22093 0,-0.67526 0.54571,-1.22093 1.22093,-1.22093 h 70.14633 c 0.67525,0 1.22093,0.54571 1.22093,1.22093 0,0.67525 -0.54571,1.22093 -1.22093,1.22093 z m 77.32889,0 c -0.67526,0 -1.22093,-0.54572 -1.22093,-1.22093 0,-0.67526 0.54571,-1.22093 1.22093,-1.22093 h 8.76441 c 0.67525,0 1.22093,0.54571 1.22093,1.22093 0,0.67525 -0.54572,1.22093 -1.22093,1.22093 z m -143.54528,-0.1888 c -0.67387,0 -1.22093,-0.54571 -1.22093,-1.22093 0,-0.67387 0.54572,-1.22092 1.22093,-1.22092 h 33.23131 c 0.67526,0 1.22093,0.54571 1.22093,1.22092 0,0.67522 -0.54571,1.22093 -1.22093,1.22093 z m 7.61365,-73.44127 c 0,0.66421 -0.54571,1.21129 -1.22093,1.21129 -0.67525,0 -1.22093,-0.54571 -1.22093,-1.21129 v -38.46336 c 0,-1.94441 0.79513,-3.72216 2.08499,-5.01192 1.28986,-1.28975 3.06613,-2.08498 5.01192,-2.08498 h 11.55347 c 0.67387,0 1.22093,0.54571 1.22093,1.22092 0,0.67526 -0.54709,1.22093 -1.22093,1.22093 H 34.23064 c -1.2802,0 -2.45153,0.52642 -3.29488,1.36014 -0.83372,0.84335 -1.36013,2.01468 -1.36013,3.29487 z M 142.43978,87.248719 c 0,-0.67387 0.54572,-1.22093 1.22093,-1.22093 0.67525,0 1.22093,0.54572 1.22093,1.22093 v 16.626071 h 13.35052 c 0.67525,0 1.22093,0.54571 1.22093,1.22092 0,0.67526 -0.54571,1.22093 -1.22093,1.22093 h -14.57148 c -0.67388,0 -1.22093,-0.54571 -1.22093,-1.22093 z M 67.94017,111.8839 v 38.14233 h 3.00687 V 67.067009 h 0.01 v -0.0303 l 0.0207,-0.11988 c 0.10887,-0.55535 0.59532,-0.98256 1.19063,-0.98256 l 38.73853,0.011 -0.12954,-3.0179 -42.83781,0.003 z"
       fill-rule="evenodd"
       id="path64"
       style="stroke-width:0.352778" />
  </g>
</svg>
